<svg width="360" height="500" viewBox="0 0 360 500" fill="none" xmlns="http://www.w3.org/2000/svg">
<rect width="360" height="500" fill="#100BFF" fill-opacity="0.81"/>
<line x1="220.5" y1="130.5" x2="315.5" y2="130.5" stroke="white" stroke-width="5" stroke-linecap="round"/>
<path d="M236.242 151.562H242.082V170.352C242.082 172.539 241.613 174.382 240.676 175.879C239.751 177.376 238.469 178.503 236.828 179.258C235.201 180.013 233.326 180.391 231.203 180.391C229.081 180.391 227.193 180.013 225.539 179.258C223.898 178.503 222.609 177.376 221.672 175.879C220.747 174.382 220.285 172.539 220.285 170.352V151.562H226.145V170.352C226.145 171.628 226.346 172.669 226.75 173.477C227.154 174.284 227.733 174.876 228.488 175.254C229.257 175.632 230.161 175.82 231.203 175.82C232.271 175.82 233.176 175.632 233.918 175.254C234.673 174.876 235.246 174.284 235.637 173.477C236.04 172.669 236.242 171.628 236.242 170.352V151.562ZM253.137 151.562V180H247.297V151.562H253.137ZM284.289 151.562H290.129V170.352C290.129 172.539 289.66 174.382 288.723 175.879C287.798 177.376 286.516 178.503 284.875 179.258C283.247 180.013 281.372 180.391 279.25 180.391C277.128 180.391 275.24 180.013 273.586 179.258C271.945 178.503 270.656 177.376 269.719 175.879C268.794 174.382 268.332 172.539 268.332 170.352V151.562H274.191V170.352C274.191 171.628 274.393 172.669 274.797 173.477C275.201 174.284 275.78 174.876 276.535 175.254C277.303 175.632 278.208 175.82 279.25 175.82C280.318 175.82 281.223 175.632 281.965 175.254C282.72 174.876 283.293 174.284 283.684 173.477C284.087 172.669 284.289 171.628 284.289 170.352V151.562ZM299.777 151.562L305.129 161.484L310.48 151.562H317.18L308.918 165.664L317.395 180H310.637L305.129 169.883L299.621 180H292.824L301.32 165.664L293.039 151.562H299.777Z" fill="white"/>
<path d="M115.672 241.781V256H113.787V241.781H115.672ZM120.633 247.689V256H118.826V245.434H120.535L120.633 247.689ZM120.203 250.316L119.451 250.287C119.458 249.564 119.565 248.897 119.773 248.285C119.982 247.667 120.275 247.13 120.652 246.674C121.03 246.218 121.479 245.867 122 245.619C122.527 245.365 123.11 245.238 123.748 245.238C124.269 245.238 124.738 245.31 125.154 245.453C125.571 245.59 125.926 245.811 126.219 246.117C126.518 246.423 126.746 246.82 126.902 247.309C127.059 247.79 127.137 248.38 127.137 249.076V256H125.32V249.057C125.32 248.503 125.239 248.061 125.076 247.729C124.913 247.39 124.676 247.146 124.363 246.996C124.051 246.84 123.667 246.762 123.211 246.762C122.762 246.762 122.352 246.856 121.98 247.045C121.616 247.234 121.3 247.494 121.033 247.826C120.773 248.158 120.568 248.539 120.418 248.969C120.275 249.392 120.203 249.841 120.203 250.316ZM134.305 245.434V246.82H128.592V245.434H134.305ZM130.525 242.865H132.332V253.383C132.332 253.741 132.387 254.011 132.498 254.193C132.609 254.376 132.752 254.496 132.928 254.555C133.104 254.613 133.292 254.643 133.494 254.643C133.644 254.643 133.8 254.63 133.963 254.604C134.132 254.571 134.259 254.545 134.344 254.525L134.354 256C134.21 256.046 134.021 256.088 133.787 256.127C133.559 256.173 133.283 256.195 132.957 256.195C132.514 256.195 132.107 256.107 131.736 255.932C131.365 255.756 131.069 255.463 130.848 255.053C130.633 254.636 130.525 254.076 130.525 253.373V242.865ZM140.809 256.195C140.073 256.195 139.406 256.072 138.807 255.824C138.214 255.57 137.703 255.215 137.273 254.76C136.85 254.304 136.525 253.764 136.297 253.139C136.069 252.514 135.955 251.83 135.955 251.088V250.678C135.955 249.818 136.082 249.053 136.336 248.383C136.59 247.706 136.935 247.133 137.371 246.664C137.807 246.195 138.302 245.84 138.855 245.6C139.409 245.359 139.982 245.238 140.574 245.238C141.329 245.238 141.98 245.368 142.527 245.629C143.081 245.889 143.533 246.254 143.885 246.723C144.236 247.185 144.497 247.732 144.666 248.363C144.835 248.988 144.92 249.672 144.92 250.414V251.225H137.029V249.75H143.113V249.613C143.087 249.145 142.99 248.689 142.82 248.246C142.658 247.803 142.397 247.439 142.039 247.152C141.681 246.866 141.193 246.723 140.574 246.723C140.164 246.723 139.786 246.811 139.441 246.986C139.096 247.156 138.8 247.41 138.553 247.748C138.305 248.087 138.113 248.5 137.977 248.988C137.84 249.477 137.771 250.04 137.771 250.678V251.088C137.771 251.589 137.84 252.061 137.977 252.504C138.12 252.94 138.325 253.324 138.592 253.656C138.865 253.988 139.194 254.249 139.578 254.438C139.969 254.626 140.411 254.721 140.906 254.721C141.544 254.721 142.085 254.59 142.527 254.33C142.97 254.07 143.357 253.721 143.689 253.285L144.783 254.154C144.555 254.499 144.266 254.828 143.914 255.141C143.562 255.453 143.13 255.707 142.615 255.902C142.107 256.098 141.505 256.195 140.809 256.195ZM148.836 247.094V256H147.029V245.434H148.787L148.836 247.094ZM152.137 245.375L152.127 247.055C151.977 247.022 151.834 247.003 151.697 246.996C151.567 246.983 151.417 246.977 151.248 246.977C150.831 246.977 150.464 247.042 150.145 247.172C149.826 247.302 149.555 247.484 149.334 247.719C149.113 247.953 148.937 248.233 148.807 248.559C148.683 248.878 148.602 249.229 148.562 249.613L148.055 249.906C148.055 249.268 148.117 248.669 148.24 248.109C148.37 247.549 148.569 247.055 148.836 246.625C149.103 246.189 149.441 245.85 149.852 245.609C150.268 245.362 150.763 245.238 151.336 245.238C151.466 245.238 151.616 245.255 151.785 245.287C151.954 245.313 152.072 245.342 152.137 245.375ZM156.658 256H154.852V244.32C154.852 243.559 154.988 242.917 155.262 242.396C155.542 241.869 155.942 241.472 156.463 241.205C156.984 240.932 157.602 240.795 158.318 240.795C158.527 240.795 158.735 240.808 158.943 240.834C159.158 240.86 159.367 240.899 159.568 240.951L159.471 242.426C159.334 242.393 159.178 242.37 159.002 242.357C158.833 242.344 158.663 242.338 158.494 242.338C158.11 242.338 157.778 242.416 157.498 242.572C157.225 242.722 157.016 242.943 156.873 243.236C156.73 243.529 156.658 243.891 156.658 244.32V256ZM158.904 245.434V246.82H153.182V245.434H158.904ZM167.146 254.193V248.754C167.146 248.337 167.062 247.976 166.893 247.67C166.73 247.357 166.482 247.117 166.15 246.947C165.818 246.778 165.408 246.693 164.92 246.693C164.464 246.693 164.064 246.771 163.719 246.928C163.38 247.084 163.113 247.289 162.918 247.543C162.729 247.797 162.635 248.07 162.635 248.363H160.828C160.828 247.986 160.926 247.611 161.121 247.24C161.316 246.869 161.596 246.534 161.961 246.234C162.332 245.928 162.775 245.688 163.289 245.512C163.81 245.329 164.389 245.238 165.027 245.238C165.796 245.238 166.473 245.368 167.059 245.629C167.651 245.889 168.113 246.283 168.445 246.811C168.784 247.331 168.953 247.986 168.953 248.773V253.695C168.953 254.047 168.982 254.421 169.041 254.818C169.106 255.215 169.201 255.557 169.324 255.844V256H167.439C167.348 255.792 167.277 255.515 167.225 255.17C167.173 254.818 167.146 254.493 167.146 254.193ZM167.459 249.594L167.479 250.863H165.652C165.138 250.863 164.679 250.906 164.275 250.99C163.872 251.068 163.533 251.189 163.26 251.352C162.986 251.514 162.778 251.719 162.635 251.967C162.492 252.208 162.42 252.491 162.42 252.816C162.42 253.148 162.495 253.451 162.645 253.725C162.794 253.998 163.019 254.216 163.318 254.379C163.624 254.535 163.999 254.613 164.441 254.613C164.995 254.613 165.483 254.496 165.906 254.262C166.329 254.027 166.665 253.741 166.912 253.402C167.166 253.064 167.303 252.735 167.322 252.416L168.094 253.285C168.048 253.559 167.924 253.861 167.723 254.193C167.521 254.525 167.251 254.844 166.912 255.15C166.58 255.45 166.183 255.701 165.721 255.902C165.265 256.098 164.751 256.195 164.178 256.195C163.462 256.195 162.833 256.055 162.293 255.775C161.759 255.495 161.342 255.121 161.043 254.652C160.75 254.177 160.604 253.646 160.604 253.061C160.604 252.494 160.714 251.996 160.936 251.566C161.157 251.13 161.476 250.769 161.893 250.482C162.309 250.189 162.811 249.968 163.396 249.818C163.982 249.669 164.637 249.594 165.359 249.594H167.459ZM176.023 254.711C176.453 254.711 176.85 254.623 177.215 254.447C177.579 254.271 177.879 254.031 178.113 253.725C178.348 253.412 178.481 253.057 178.514 252.66H180.232C180.2 253.285 179.988 253.868 179.598 254.408C179.214 254.942 178.709 255.375 178.084 255.707C177.459 256.033 176.772 256.195 176.023 256.195C175.229 256.195 174.536 256.055 173.943 255.775C173.357 255.495 172.869 255.111 172.479 254.623C172.094 254.135 171.805 253.575 171.609 252.943C171.421 252.305 171.326 251.632 171.326 250.922V250.512C171.326 249.802 171.421 249.132 171.609 248.5C171.805 247.862 172.094 247.299 172.479 246.811C172.869 246.322 173.357 245.938 173.943 245.658C174.536 245.378 175.229 245.238 176.023 245.238C176.85 245.238 177.573 245.408 178.191 245.746C178.81 246.078 179.295 246.534 179.646 247.113C180.005 247.686 180.2 248.337 180.232 249.066H178.514C178.481 248.63 178.357 248.236 178.143 247.885C177.934 247.533 177.648 247.253 177.283 247.045C176.925 246.83 176.505 246.723 176.023 246.723C175.47 246.723 175.005 246.833 174.627 247.055C174.256 247.27 173.96 247.562 173.738 247.934C173.523 248.298 173.367 248.705 173.27 249.154C173.178 249.597 173.133 250.049 173.133 250.512V250.922C173.133 251.384 173.178 251.84 173.27 252.289C173.361 252.738 173.514 253.145 173.729 253.51C173.95 253.874 174.246 254.167 174.617 254.389C174.995 254.604 175.464 254.711 176.023 254.711ZM186.648 256.195C185.913 256.195 185.245 256.072 184.646 255.824C184.054 255.57 183.543 255.215 183.113 254.76C182.69 254.304 182.365 253.764 182.137 253.139C181.909 252.514 181.795 251.83 181.795 251.088V250.678C181.795 249.818 181.922 249.053 182.176 248.383C182.43 247.706 182.775 247.133 183.211 246.664C183.647 246.195 184.142 245.84 184.695 245.6C185.249 245.359 185.822 245.238 186.414 245.238C187.169 245.238 187.82 245.368 188.367 245.629C188.921 245.889 189.373 246.254 189.725 246.723C190.076 247.185 190.337 247.732 190.506 248.363C190.675 248.988 190.76 249.672 190.76 250.414V251.225H182.869V249.75H188.953V249.613C188.927 249.145 188.829 248.689 188.66 248.246C188.497 247.803 188.237 247.439 187.879 247.152C187.521 246.866 187.033 246.723 186.414 246.723C186.004 246.723 185.626 246.811 185.281 246.986C184.936 247.156 184.64 247.41 184.393 247.748C184.145 248.087 183.953 248.5 183.816 248.988C183.68 249.477 183.611 250.04 183.611 250.678V251.088C183.611 251.589 183.68 252.061 183.816 252.504C183.96 252.94 184.165 253.324 184.432 253.656C184.705 253.988 185.034 254.249 185.418 254.438C185.809 254.626 186.251 254.721 186.746 254.721C187.384 254.721 187.924 254.59 188.367 254.33C188.81 254.07 189.197 253.721 189.529 253.285L190.623 254.154C190.395 254.499 190.105 254.828 189.754 255.141C189.402 255.453 188.969 255.707 188.455 255.902C187.947 256.098 187.345 256.195 186.648 256.195ZM199.793 241V256H197.977V241H199.793ZM204.656 245.434V256H202.84V245.434H204.656ZM202.703 242.631C202.703 242.338 202.791 242.09 202.967 241.889C203.149 241.687 203.416 241.586 203.768 241.586C204.113 241.586 204.376 241.687 204.559 241.889C204.747 242.09 204.842 242.338 204.842 242.631C204.842 242.911 204.747 243.152 204.559 243.354C204.376 243.549 204.113 243.646 203.768 243.646C203.416 243.646 203.149 243.549 202.967 243.354C202.791 243.152 202.703 242.911 202.703 242.631ZM209.354 247.533V256H207.537V245.434H209.256L209.354 247.533ZM208.982 250.316L208.143 250.287C208.149 249.564 208.243 248.897 208.426 248.285C208.608 247.667 208.878 247.13 209.236 246.674C209.594 246.218 210.04 245.867 210.574 245.619C211.108 245.365 211.727 245.238 212.43 245.238C212.924 245.238 213.38 245.31 213.797 245.453C214.214 245.59 214.575 245.808 214.881 246.107C215.187 246.407 215.424 246.791 215.594 247.26C215.763 247.729 215.848 248.295 215.848 248.959V256H214.041V249.047C214.041 248.493 213.947 248.051 213.758 247.719C213.576 247.387 213.315 247.146 212.977 246.996C212.638 246.84 212.241 246.762 211.785 246.762C211.251 246.762 210.805 246.856 210.447 247.045C210.089 247.234 209.803 247.494 209.588 247.826C209.373 248.158 209.217 248.539 209.119 248.969C209.028 249.392 208.982 249.841 208.982 250.316ZM215.828 249.32L214.617 249.691C214.624 249.112 214.718 248.555 214.9 248.021C215.089 247.488 215.359 247.012 215.711 246.596C216.069 246.179 216.508 245.85 217.029 245.609C217.55 245.362 218.146 245.238 218.816 245.238C219.383 245.238 219.884 245.313 220.32 245.463C220.763 245.613 221.134 245.844 221.434 246.156C221.74 246.462 221.971 246.856 222.127 247.338C222.283 247.82 222.361 248.393 222.361 249.057V256H220.545V249.037C220.545 248.445 220.451 247.986 220.262 247.66C220.079 247.328 219.819 247.097 219.48 246.967C219.148 246.83 218.751 246.762 218.289 246.762C217.892 246.762 217.54 246.83 217.234 246.967C216.928 247.104 216.671 247.292 216.463 247.533C216.255 247.768 216.095 248.038 215.984 248.344C215.88 248.65 215.828 248.975 215.828 249.32ZM226.902 247.465V260.062H225.086V245.434H226.746L226.902 247.465ZM234.021 250.629V250.834C234.021 251.602 233.93 252.315 233.748 252.973C233.566 253.624 233.299 254.19 232.947 254.672C232.602 255.154 232.176 255.528 231.668 255.795C231.16 256.062 230.577 256.195 229.92 256.195C229.249 256.195 228.657 256.085 228.143 255.863C227.628 255.642 227.192 255.32 226.834 254.896C226.476 254.473 226.189 253.965 225.975 253.373C225.766 252.781 225.623 252.113 225.545 251.371V250.277C225.623 249.496 225.77 248.796 225.984 248.178C226.199 247.559 226.482 247.032 226.834 246.596C227.192 246.153 227.625 245.818 228.133 245.59C228.641 245.355 229.227 245.238 229.891 245.238C230.555 245.238 231.144 245.368 231.658 245.629C232.173 245.883 232.605 246.247 232.957 246.723C233.309 247.198 233.572 247.768 233.748 248.432C233.93 249.089 234.021 249.822 234.021 250.629ZM232.205 250.834V250.629C232.205 250.102 232.15 249.607 232.039 249.145C231.928 248.676 231.756 248.266 231.521 247.914C231.294 247.556 231.001 247.276 230.643 247.074C230.285 246.866 229.858 246.762 229.363 246.762C228.908 246.762 228.51 246.84 228.172 246.996C227.84 247.152 227.557 247.364 227.322 247.631C227.088 247.891 226.896 248.191 226.746 248.529C226.603 248.861 226.495 249.206 226.424 249.564V252.094C226.554 252.549 226.736 252.979 226.971 253.383C227.205 253.78 227.518 254.102 227.908 254.35C228.299 254.59 228.79 254.711 229.383 254.711C229.871 254.711 230.291 254.61 230.643 254.408C231.001 254.2 231.294 253.917 231.521 253.559C231.756 253.201 231.928 252.79 232.039 252.328C232.15 251.859 232.205 251.361 232.205 250.834ZM242.557 254.193V248.754C242.557 248.337 242.472 247.976 242.303 247.67C242.14 247.357 241.893 247.117 241.561 246.947C241.229 246.778 240.818 246.693 240.33 246.693C239.874 246.693 239.474 246.771 239.129 246.928C238.79 247.084 238.523 247.289 238.328 247.543C238.139 247.797 238.045 248.07 238.045 248.363H236.238C236.238 247.986 236.336 247.611 236.531 247.24C236.727 246.869 237.007 246.534 237.371 246.234C237.742 245.928 238.185 245.688 238.699 245.512C239.22 245.329 239.799 245.238 240.438 245.238C241.206 245.238 241.883 245.368 242.469 245.629C243.061 245.889 243.523 246.283 243.855 246.811C244.194 247.331 244.363 247.986 244.363 248.773V253.695C244.363 254.047 244.393 254.421 244.451 254.818C244.516 255.215 244.611 255.557 244.734 255.844V256H242.85C242.758 255.792 242.687 255.515 242.635 255.17C242.583 254.818 242.557 254.493 242.557 254.193ZM242.869 249.594L242.889 250.863H241.062C240.548 250.863 240.089 250.906 239.686 250.99C239.282 251.068 238.943 251.189 238.67 251.352C238.396 251.514 238.188 251.719 238.045 251.967C237.902 252.208 237.83 252.491 237.83 252.816C237.83 253.148 237.905 253.451 238.055 253.725C238.204 253.998 238.429 254.216 238.729 254.379C239.035 254.535 239.409 254.613 239.852 254.613C240.405 254.613 240.893 254.496 241.316 254.262C241.74 254.027 242.075 253.741 242.322 253.402C242.576 253.064 242.713 252.735 242.732 252.416L243.504 253.285C243.458 253.559 243.335 253.861 243.133 254.193C242.931 254.525 242.661 254.844 242.322 255.15C241.99 255.45 241.593 255.701 241.131 255.902C240.675 256.098 240.161 256.195 239.588 256.195C238.872 256.195 238.243 256.055 237.703 255.775C237.169 255.495 236.753 255.121 236.453 254.652C236.16 254.177 236.014 253.646 236.014 253.061C236.014 252.494 236.124 251.996 236.346 251.566C236.567 251.13 236.886 250.769 237.303 250.482C237.719 250.189 238.221 249.968 238.807 249.818C239.393 249.669 240.047 249.594 240.77 249.594H242.869ZM256.551 256.195C255.815 256.195 255.148 256.072 254.549 255.824C253.956 255.57 253.445 255.215 253.016 254.76C252.592 254.304 252.267 253.764 252.039 253.139C251.811 252.514 251.697 251.83 251.697 251.088V250.678C251.697 249.818 251.824 249.053 252.078 248.383C252.332 247.706 252.677 247.133 253.113 246.664C253.549 246.195 254.044 245.84 254.598 245.6C255.151 245.359 255.724 245.238 256.316 245.238C257.072 245.238 257.723 245.368 258.27 245.629C258.823 245.889 259.275 246.254 259.627 246.723C259.979 247.185 260.239 247.732 260.408 248.363C260.577 248.988 260.662 249.672 260.662 250.414V251.225H252.771V249.75H258.855V249.613C258.829 249.145 258.732 248.689 258.562 248.246C258.4 247.803 258.139 247.439 257.781 247.152C257.423 246.866 256.935 246.723 256.316 246.723C255.906 246.723 255.529 246.811 255.184 246.986C254.839 247.156 254.542 247.41 254.295 247.748C254.048 248.087 253.855 248.5 253.719 248.988C253.582 249.477 253.514 250.04 253.514 250.678V251.088C253.514 251.589 253.582 252.061 253.719 252.504C253.862 252.94 254.067 253.324 254.334 253.656C254.607 253.988 254.936 254.249 255.32 254.438C255.711 254.626 256.154 254.721 256.648 254.721C257.286 254.721 257.827 254.59 258.27 254.33C258.712 254.07 259.1 253.721 259.432 253.285L260.525 254.154C260.298 254.499 260.008 254.828 259.656 255.141C259.305 255.453 258.872 255.707 258.357 255.902C257.85 256.098 257.247 256.195 256.551 256.195ZM273.885 253.197C273.885 252.937 273.826 252.696 273.709 252.475C273.598 252.247 273.367 252.042 273.016 251.859C272.671 251.671 272.15 251.508 271.453 251.371C270.867 251.247 270.337 251.101 269.861 250.932C269.393 250.762 268.992 250.557 268.66 250.316C268.335 250.076 268.084 249.792 267.908 249.467C267.732 249.141 267.645 248.76 267.645 248.324C267.645 247.908 267.736 247.514 267.918 247.143C268.107 246.771 268.37 246.443 268.709 246.156C269.054 245.87 269.467 245.645 269.949 245.482C270.431 245.32 270.968 245.238 271.561 245.238C272.407 245.238 273.13 245.388 273.729 245.688C274.327 245.987 274.786 246.387 275.105 246.889C275.424 247.383 275.584 247.934 275.584 248.539H273.777C273.777 248.246 273.689 247.963 273.514 247.689C273.344 247.41 273.094 247.178 272.762 246.996C272.436 246.814 272.036 246.723 271.561 246.723C271.059 246.723 270.652 246.801 270.34 246.957C270.034 247.107 269.809 247.299 269.666 247.533C269.529 247.768 269.461 248.015 269.461 248.275C269.461 248.471 269.493 248.646 269.559 248.803C269.63 248.952 269.754 249.092 269.93 249.223C270.105 249.346 270.353 249.464 270.672 249.574C270.991 249.685 271.398 249.796 271.893 249.906C272.758 250.102 273.471 250.336 274.031 250.609C274.591 250.883 275.008 251.218 275.281 251.615C275.555 252.012 275.691 252.494 275.691 253.061C275.691 253.523 275.594 253.946 275.398 254.33C275.21 254.714 274.933 255.046 274.568 255.326C274.21 255.6 273.781 255.814 273.279 255.971C272.785 256.12 272.228 256.195 271.609 256.195C270.678 256.195 269.891 256.029 269.246 255.697C268.602 255.365 268.113 254.936 267.781 254.408C267.449 253.881 267.283 253.324 267.283 252.738H269.1C269.126 253.233 269.269 253.627 269.529 253.92C269.79 254.206 270.109 254.411 270.486 254.535C270.864 254.652 271.238 254.711 271.609 254.711C272.104 254.711 272.518 254.646 272.85 254.516C273.188 254.385 273.445 254.206 273.621 253.979C273.797 253.751 273.885 253.49 273.885 253.197ZM284.529 253.559V245.434H286.346V256H284.617L284.529 253.559ZM284.871 251.332L285.623 251.312C285.623 252.016 285.548 252.667 285.398 253.266C285.255 253.858 285.021 254.372 284.695 254.809C284.37 255.245 283.943 255.587 283.416 255.834C282.889 256.075 282.247 256.195 281.492 256.195C280.978 256.195 280.506 256.12 280.076 255.971C279.653 255.821 279.288 255.59 278.982 255.277C278.676 254.965 278.439 254.558 278.27 254.057C278.107 253.555 278.025 252.953 278.025 252.25V245.434H279.832V252.27C279.832 252.745 279.884 253.139 279.988 253.451C280.099 253.757 280.245 254.001 280.428 254.184C280.617 254.359 280.825 254.483 281.053 254.555C281.287 254.626 281.528 254.662 281.775 254.662C282.544 254.662 283.152 254.516 283.602 254.223C284.051 253.923 284.373 253.523 284.568 253.021C284.77 252.514 284.871 251.951 284.871 251.332ZM295.33 254.193V248.754C295.33 248.337 295.245 247.976 295.076 247.67C294.913 247.357 294.666 247.117 294.334 246.947C294.002 246.778 293.592 246.693 293.104 246.693C292.648 246.693 292.247 246.771 291.902 246.928C291.564 247.084 291.297 247.289 291.102 247.543C290.913 247.797 290.818 248.07 290.818 248.363H289.012C289.012 247.986 289.109 247.611 289.305 247.24C289.5 246.869 289.78 246.534 290.145 246.234C290.516 245.928 290.958 245.688 291.473 245.512C291.993 245.329 292.573 245.238 293.211 245.238C293.979 245.238 294.656 245.368 295.242 245.629C295.835 245.889 296.297 246.283 296.629 246.811C296.967 247.331 297.137 247.986 297.137 248.773V253.695C297.137 254.047 297.166 254.421 297.225 254.818C297.29 255.215 297.384 255.557 297.508 255.844V256H295.623C295.532 255.792 295.46 255.515 295.408 255.17C295.356 254.818 295.33 254.493 295.33 254.193ZM295.643 249.594L295.662 250.863H293.836C293.322 250.863 292.863 250.906 292.459 250.99C292.055 251.068 291.717 251.189 291.443 251.352C291.17 251.514 290.962 251.719 290.818 251.967C290.675 252.208 290.604 252.491 290.604 252.816C290.604 253.148 290.678 253.451 290.828 253.725C290.978 253.998 291.202 254.216 291.502 254.379C291.808 254.535 292.182 254.613 292.625 254.613C293.178 254.613 293.667 254.496 294.09 254.262C294.513 254.027 294.848 253.741 295.096 253.402C295.35 253.064 295.486 252.735 295.506 252.416L296.277 253.285C296.232 253.559 296.108 253.861 295.906 254.193C295.704 254.525 295.434 254.844 295.096 255.15C294.764 255.45 294.367 255.701 293.904 255.902C293.449 256.098 292.934 256.195 292.361 256.195C291.645 256.195 291.017 256.055 290.477 255.775C289.943 255.495 289.526 255.121 289.227 254.652C288.934 254.177 288.787 253.646 288.787 253.061C288.787 252.494 288.898 251.996 289.119 251.566C289.34 251.13 289.66 250.769 290.076 250.482C290.493 250.189 290.994 249.968 291.58 249.818C292.166 249.669 292.82 249.594 293.543 249.594H295.643ZM303.035 254.369L305.926 245.434H307.771L303.973 256H302.762L303.035 254.369ZM300.623 245.434L303.602 254.418L303.807 256H302.596L298.768 245.434H300.623ZM313.758 256.195C313.022 256.195 312.355 256.072 311.756 255.824C311.163 255.57 310.652 255.215 310.223 254.76C309.799 254.304 309.474 253.764 309.246 253.139C309.018 252.514 308.904 251.83 308.904 251.088V250.678C308.904 249.818 309.031 249.053 309.285 248.383C309.539 247.706 309.884 247.133 310.32 246.664C310.757 246.195 311.251 245.84 311.805 245.6C312.358 245.359 312.931 245.238 313.523 245.238C314.279 245.238 314.93 245.368 315.477 245.629C316.03 245.889 316.482 246.254 316.834 246.723C317.186 247.185 317.446 247.732 317.615 248.363C317.785 248.988 317.869 249.672 317.869 250.414V251.225H309.979V249.75H316.062V249.613C316.036 249.145 315.939 248.689 315.77 248.246C315.607 247.803 315.346 247.439 314.988 247.152C314.63 246.866 314.142 246.723 313.523 246.723C313.113 246.723 312.736 246.811 312.391 246.986C312.046 247.156 311.749 247.41 311.502 247.748C311.255 248.087 311.062 248.5 310.926 248.988C310.789 249.477 310.721 250.04 310.721 250.678V251.088C310.721 251.589 310.789 252.061 310.926 252.504C311.069 252.94 311.274 253.324 311.541 253.656C311.814 253.988 312.143 254.249 312.527 254.438C312.918 254.626 313.361 254.721 313.855 254.721C314.493 254.721 315.034 254.59 315.477 254.33C315.919 254.07 316.307 253.721 316.639 253.285L317.732 254.154C317.505 254.499 317.215 254.828 316.863 255.141C316.512 255.453 316.079 255.707 315.564 255.902C315.057 256.098 314.454 256.195 313.758 256.195Z" fill="white"/>
<path d="M216.342 207.139V209.434H206.596V207.139H216.342ZM212.709 203.223V213.574H210.238V203.223H212.709ZM224.662 200.742V215H222.074V203.76L218.646 204.893V202.803L224.369 200.742H224.662ZM232.006 208.457L229.945 207.959L230.736 200.781H238.559V202.92H232.875L232.504 206.24C232.706 206.117 232.999 205.993 233.383 205.869C233.773 205.739 234.213 205.674 234.701 205.674C235.378 205.674 235.984 205.785 236.518 206.006C237.051 206.221 237.504 206.533 237.875 206.943C238.253 207.354 238.536 207.855 238.725 208.447C238.92 209.033 239.018 209.697 239.018 210.439C239.018 211.09 238.92 211.702 238.725 212.275C238.536 212.842 238.246 213.346 237.855 213.789C237.465 214.225 236.973 214.57 236.381 214.824C235.788 215.072 235.092 215.195 234.291 215.195C233.686 215.195 233.103 215.107 232.543 214.932C231.99 214.749 231.492 214.486 231.049 214.141C230.606 213.789 230.251 213.359 229.984 212.852C229.724 212.344 229.581 211.761 229.555 211.104H232.104C232.149 211.54 232.266 211.911 232.455 212.217C232.644 212.523 232.891 212.757 233.197 212.92C233.51 213.083 233.871 213.164 234.281 213.164C234.652 213.164 234.971 213.096 235.238 212.959C235.512 212.816 235.736 212.617 235.912 212.363C236.088 212.109 236.218 211.81 236.303 211.465C236.387 211.12 236.43 210.742 236.43 210.332C236.43 209.935 236.381 209.574 236.283 209.248C236.186 208.916 236.036 208.63 235.834 208.389C235.632 208.148 235.378 207.962 235.072 207.832C234.773 207.702 234.421 207.637 234.018 207.637C233.477 207.637 233.061 207.718 232.768 207.881C232.481 208.044 232.227 208.236 232.006 208.457ZM248.568 206.465V219.062H245.98V204.434H248.373L248.568 206.465ZM255.355 209.609V209.814C255.355 210.583 255.264 211.296 255.082 211.953C254.906 212.604 254.646 213.174 254.301 213.662C253.956 214.144 253.526 214.521 253.012 214.795C252.504 215.062 251.918 215.195 251.254 215.195C250.603 215.195 250.036 215.072 249.555 214.824C249.073 214.57 248.666 214.212 248.334 213.75C248.002 213.288 247.735 212.751 247.533 212.139C247.338 211.52 247.191 210.846 247.094 210.117V209.463C247.191 208.688 247.338 207.985 247.533 207.354C247.735 206.715 248.002 206.165 248.334 205.703C248.666 205.234 249.07 204.873 249.545 204.619C250.027 204.365 250.59 204.238 251.234 204.238C251.905 204.238 252.494 204.365 253.002 204.619C253.516 204.873 253.949 205.238 254.301 205.713C254.652 206.188 254.916 206.755 255.092 207.412C255.268 208.07 255.355 208.802 255.355 209.609ZM252.768 209.814V209.609C252.768 209.141 252.725 208.708 252.641 208.311C252.556 207.907 252.426 207.555 252.25 207.256C252.074 206.95 251.846 206.712 251.566 206.543C251.286 206.374 250.948 206.289 250.551 206.289C250.154 206.289 249.812 206.354 249.525 206.484C249.239 206.615 249.005 206.8 248.822 207.041C248.64 207.282 248.497 207.568 248.393 207.9C248.295 208.226 248.23 208.587 248.197 208.984V210.605C248.256 211.087 248.37 211.52 248.539 211.904C248.708 212.288 248.956 212.594 249.281 212.822C249.613 213.05 250.043 213.164 250.57 213.164C250.967 213.164 251.306 213.076 251.586 212.9C251.866 212.725 252.094 212.484 252.27 212.178C252.445 211.865 252.572 211.507 252.65 211.104C252.729 210.7 252.768 210.27 252.768 209.814ZM259.818 206.592V215H257.24V204.434H259.682L259.818 206.592ZM263.031 204.365L262.992 206.768C262.849 206.742 262.686 206.722 262.504 206.709C262.328 206.696 262.162 206.689 262.006 206.689C261.609 206.689 261.26 206.745 260.961 206.855C260.661 206.96 260.411 207.113 260.209 207.314C260.014 207.516 259.864 207.764 259.76 208.057C259.656 208.343 259.597 208.669 259.584 209.033L259.027 208.965C259.027 208.294 259.096 207.673 259.232 207.1C259.369 206.527 259.568 206.025 259.828 205.596C260.089 205.166 260.414 204.834 260.805 204.6C261.202 204.359 261.658 204.238 262.172 204.238C262.315 204.238 262.468 204.251 262.631 204.277C262.8 204.297 262.934 204.326 263.031 204.365ZM263.715 209.824V209.619C263.715 208.844 263.826 208.132 264.047 207.48C264.268 206.823 264.59 206.253 265.014 205.771C265.437 205.29 265.954 204.915 266.566 204.648C267.178 204.375 267.875 204.238 268.656 204.238C269.451 204.238 270.154 204.375 270.766 204.648C271.384 204.915 271.905 205.29 272.328 205.771C272.751 206.253 273.074 206.823 273.295 207.48C273.516 208.132 273.627 208.844 273.627 209.619V209.824C273.627 210.592 273.516 211.305 273.295 211.963C273.074 212.614 272.751 213.184 272.328 213.672C271.905 214.154 271.387 214.528 270.775 214.795C270.163 215.062 269.464 215.195 268.676 215.195C267.895 215.195 267.195 215.062 266.576 214.795C265.958 214.528 265.437 214.154 265.014 213.672C264.59 213.184 264.268 212.614 264.047 211.963C263.826 211.305 263.715 210.592 263.715 209.824ZM266.293 209.619V209.824C266.293 210.286 266.339 210.719 266.43 211.123C266.521 211.527 266.661 211.882 266.85 212.188C267.038 212.493 267.283 212.734 267.582 212.91C267.888 213.079 268.253 213.164 268.676 213.164C269.092 213.164 269.451 213.079 269.75 212.91C270.049 212.734 270.294 212.493 270.482 212.188C270.678 211.882 270.821 211.527 270.912 211.123C271.003 210.719 271.049 210.286 271.049 209.824V209.619C271.049 209.163 271.003 208.737 270.912 208.34C270.821 207.936 270.678 207.581 270.482 207.275C270.294 206.963 270.046 206.719 269.74 206.543C269.441 206.361 269.079 206.27 268.656 206.27C268.24 206.27 267.882 206.361 267.582 206.543C267.283 206.719 267.038 206.963 266.85 207.275C266.661 207.581 266.521 207.936 266.43 208.34C266.339 208.737 266.293 209.163 266.293 209.619ZM275.629 204.434H278.227V215.781C278.227 216.53 278.09 217.165 277.816 217.686C277.549 218.206 277.162 218.6 276.654 218.867C276.146 219.134 275.525 219.268 274.789 219.268C274.561 219.268 274.333 219.255 274.105 219.229C273.878 219.202 273.653 219.16 273.432 219.102L273.441 217.109C273.585 217.135 273.731 217.155 273.881 217.168C274.031 217.188 274.18 217.197 274.33 217.197C274.61 217.197 274.844 217.148 275.033 217.051C275.229 216.953 275.375 216.8 275.473 216.592C275.577 216.383 275.629 216.113 275.629 215.781V204.434ZM275.414 201.67C275.414 201.286 275.544 200.967 275.805 200.713C276.072 200.459 276.43 200.332 276.879 200.332C277.328 200.332 277.683 200.459 277.943 200.713C278.21 200.967 278.344 201.286 278.344 201.67C278.344 202.048 278.21 202.363 277.943 202.617C277.683 202.871 277.328 202.998 276.879 202.998C276.43 202.998 276.072 202.871 275.805 202.617C275.544 202.363 275.414 202.048 275.414 201.67ZM285.365 215.195C284.564 215.195 283.845 215.065 283.207 214.805C282.569 214.544 282.025 214.183 281.576 213.721C281.133 213.252 280.792 212.708 280.551 212.09C280.316 211.465 280.199 210.794 280.199 210.078V209.688C280.199 208.874 280.316 208.135 280.551 207.471C280.785 206.8 281.117 206.224 281.547 205.742C281.977 205.26 282.491 204.889 283.09 204.629C283.689 204.368 284.35 204.238 285.072 204.238C285.821 204.238 286.482 204.365 287.055 204.619C287.628 204.867 288.106 205.218 288.49 205.674C288.874 206.13 289.164 206.676 289.359 207.314C289.555 207.946 289.652 208.646 289.652 209.414V210.498H281.371V208.721H287.113V208.525C287.1 208.115 287.022 207.741 286.879 207.402C286.736 207.057 286.514 206.784 286.215 206.582C285.915 206.374 285.528 206.27 285.053 206.27C284.669 206.27 284.333 206.354 284.047 206.523C283.767 206.686 283.533 206.921 283.344 207.227C283.161 207.526 283.025 207.884 282.934 208.301C282.842 208.717 282.797 209.18 282.797 209.688V210.078C282.797 210.521 282.855 210.931 282.973 211.309C283.096 211.686 283.275 212.015 283.51 212.295C283.751 212.568 284.037 212.783 284.369 212.939C284.708 213.089 285.092 213.164 285.521 213.164C286.062 213.164 286.55 213.06 286.986 212.852C287.429 212.637 287.813 212.321 288.139 211.904L289.438 213.252C289.216 213.577 288.917 213.89 288.539 214.189C288.168 214.489 287.719 214.733 287.191 214.922C286.664 215.104 286.055 215.195 285.365 215.195ZM296.381 204.434V206.289H290.326V204.434H296.381ZM291.947 201.836H294.535V211.953C294.535 212.266 294.577 212.507 294.662 212.676C294.747 212.845 294.874 212.959 295.043 213.018C295.212 213.076 295.414 213.105 295.648 213.105C295.818 213.105 295.974 213.096 296.117 213.076C296.26 213.057 296.381 213.037 296.479 213.018L296.488 214.951C296.273 215.023 296.029 215.081 295.756 215.127C295.489 215.173 295.186 215.195 294.848 215.195C294.268 215.195 293.76 215.098 293.324 214.902C292.888 214.701 292.549 214.378 292.309 213.936C292.068 213.486 291.947 212.894 291.947 212.158V201.836ZM297.387 209.824V209.619C297.387 208.844 297.497 208.132 297.719 207.48C297.94 206.823 298.262 206.253 298.686 205.771C299.109 205.29 299.626 204.915 300.238 204.648C300.85 204.375 301.547 204.238 302.328 204.238C303.122 204.238 303.826 204.375 304.438 204.648C305.056 204.915 305.577 205.29 306 205.771C306.423 206.253 306.745 206.823 306.967 207.48C307.188 208.132 307.299 208.844 307.299 209.619V209.824C307.299 210.592 307.188 211.305 306.967 211.963C306.745 212.614 306.423 213.184 306 213.672C305.577 214.154 305.059 214.528 304.447 214.795C303.835 215.062 303.135 215.195 302.348 215.195C301.566 215.195 300.867 215.062 300.248 214.795C299.63 214.528 299.109 214.154 298.686 213.672C298.262 213.184 297.94 212.614 297.719 211.963C297.497 211.305 297.387 210.592 297.387 209.824ZM299.965 209.619V209.824C299.965 210.286 300.01 210.719 300.102 211.123C300.193 211.527 300.333 211.882 300.521 212.188C300.71 212.493 300.954 212.734 301.254 212.91C301.56 213.079 301.924 213.164 302.348 213.164C302.764 213.164 303.122 213.079 303.422 212.91C303.721 212.734 303.965 212.493 304.154 212.188C304.35 211.882 304.493 211.527 304.584 211.123C304.675 210.719 304.721 210.286 304.721 209.824V209.619C304.721 209.163 304.675 208.737 304.584 208.34C304.493 207.936 304.35 207.581 304.154 207.275C303.965 206.963 303.718 206.719 303.412 206.543C303.113 206.361 302.751 206.27 302.328 206.27C301.911 206.27 301.553 206.361 301.254 206.543C300.954 206.719 300.71 206.963 300.521 207.275C300.333 207.581 300.193 207.936 300.102 208.34C300.01 208.737 299.965 209.163 299.965 209.619ZM314.984 212.109C314.984 211.888 314.926 211.689 314.809 211.514C314.691 211.338 314.47 211.178 314.145 211.035C313.826 210.885 313.357 210.745 312.738 210.615C312.191 210.498 311.687 210.352 311.225 210.176C310.762 210 310.365 209.788 310.033 209.541C309.701 209.287 309.441 208.991 309.252 208.652C309.07 208.307 308.979 207.91 308.979 207.461C308.979 207.025 309.073 206.615 309.262 206.23C309.451 205.84 309.724 205.498 310.082 205.205C310.44 204.906 310.876 204.671 311.391 204.502C311.905 204.326 312.484 204.238 313.129 204.238C314.027 204.238 314.799 204.385 315.443 204.678C316.094 204.971 316.592 205.374 316.938 205.889C317.283 206.396 317.455 206.969 317.455 207.607H314.877C314.877 207.327 314.812 207.074 314.682 206.846C314.558 206.618 314.366 206.436 314.105 206.299C313.845 206.156 313.516 206.084 313.119 206.084C312.761 206.084 312.458 206.143 312.211 206.26C311.97 206.377 311.788 206.53 311.664 206.719C311.54 206.908 311.479 207.116 311.479 207.344C311.479 207.513 311.511 207.666 311.576 207.803C311.648 207.933 311.762 208.053 311.918 208.164C312.074 208.275 312.286 208.376 312.553 208.467C312.826 208.558 313.161 208.646 313.559 208.73C314.346 208.887 315.033 209.095 315.619 209.355C316.212 209.609 316.674 209.948 317.006 210.371C317.338 210.794 317.504 211.335 317.504 211.992C317.504 212.461 317.403 212.891 317.201 213.281C316.999 213.665 316.706 214.001 316.322 214.287C315.938 214.574 315.479 214.798 314.945 214.961C314.411 215.117 313.809 215.195 313.139 215.195C312.169 215.195 311.348 215.023 310.678 214.678C310.007 214.326 309.499 213.883 309.154 213.35C308.809 212.809 308.637 212.249 308.637 211.67H311.107C311.127 212.08 311.238 212.409 311.439 212.656C311.641 212.904 311.895 213.083 312.201 213.193C312.514 213.298 312.842 213.35 313.188 213.35C313.578 213.35 313.907 213.298 314.174 213.193C314.441 213.083 314.643 212.936 314.779 212.754C314.916 212.565 314.984 212.35 314.984 212.109Z" fill="white"/>
<mask id="mask0_137_131" style="mask-type:alpha" maskUnits="userSpaceOnUse" x="0" y="0" width="360" height="500">
<rect width="360" height="500" fill="#1E85FF"/>
</mask>
<g mask="url(#mask0_137_131)">
<path d="M29.8282 525.43C9.38262 508.975 -3.77453 485.142 -6.80458 459.072C-9.83461 433.003 -2.49465 406.787 13.6317 386.081C29.7581 365.375 53.3782 351.839 79.3958 348.393C105.413 344.947 131.743 351.867 152.704 367.66C173.665 383.454 187.577 406.855 191.438 432.814C195.3 458.773 188.801 485.21 173.345 506.421C157.888 527.631 134.713 541.915 108.818 546.191C82.9241 550.467 56.3869 544.391 34.932 529.276L47.2124 511.845C64.0926 523.738 84.9716 528.518 105.345 525.154C125.718 521.79 143.952 510.551 156.113 493.863C168.274 477.175 173.387 456.375 170.348 435.951C167.31 415.527 156.365 397.116 139.873 384.69C123.381 372.264 102.666 366.819 82.1956 369.53C61.7254 372.242 43.1417 382.892 30.4538 399.183C17.7658 415.474 11.9909 436.1 14.3749 456.611C16.7589 477.121 27.1106 495.873 43.1968 508.82L29.8282 525.43Z" fill="white" fill-opacity="0.4"/>
</g>
</svg>
