<svg width="76" height="26" viewBox="0 0 76 26" fill="none" xmlns="http://www.w3.org/2000/svg">
<path d="M31.75 25.5C30.5694 25.5 29.5806 25.1 28.7833 24.3C27.9833 23.5028 27.5833 22.5139 27.5833 21.3333V17.1667H33.8333V19.25H42.1667V15.0833H31.75C30.5694 15.0833 29.5806 14.6833 28.7833 13.8833C27.9833 13.0861 27.5833 12.0972 27.5833 10.9167V4.66667C27.5833 3.48611 27.9833 2.49583 28.7833 1.69583C29.5806 0.89861 30.5694 0.5 31.75 0.5H44.25C45.4306 0.5 46.4208 0.89861 47.2208 1.69583C48.0181 2.49583 48.4167 3.48611 48.4167 4.66667V8.83333H42.1667V6.75H33.8333V10.9167H44.25C45.4306 10.9167 46.4208 11.3153 47.2208 12.1125C48.0181 12.9125 48.4167 13.9028 48.4167 15.0833V21.3333C48.4167 22.5139 48.0181 23.5028 47.2208 24.3C46.4208 25.1 45.4306 25.5 44.25 25.5H31.75ZM58.8333 25.5C57.6528 25.5 56.6639 25.1 55.8667 24.3C55.0667 23.5028 54.6667 22.5139 54.6667 21.3333V17.1667H60.9167V19.25H69.25V15.0833H58.8333C57.6528 15.0833 56.6639 14.6833 55.8667 13.8833C55.0667 13.0861 54.6667 12.0972 54.6667 10.9167V4.66667C54.6667 3.48611 55.0667 2.49583 55.8667 1.69583C56.6639 0.89861 57.6528 0.5 58.8333 0.5H71.3333C72.5139 0.5 73.5028 0.89861 74.3 1.69583C75.1 2.49583 75.5 3.48611 75.5 4.66667V8.83333H69.25V6.75H60.9167V10.9167H71.3333C72.5139 10.9167 73.5028 11.3153 74.3 12.1125C75.1 12.9125 75.5 13.9028 75.5 15.0833V21.3333C75.5 22.5139 75.1 23.5028 74.3 24.3C73.5028 25.1 72.5139 25.5 71.3333 25.5H58.8333ZM4.66667 25.5C3.48611 25.5 2.49722 25.1 1.7 24.3C0.9 23.5028 0.5 22.5139 0.5 21.3333V4.66667C0.5 3.48611 0.9 2.49583 1.7 1.69583C2.49722 0.89861 3.48611 0.5 4.66667 0.5H17.1667C18.3472 0.5 19.3375 0.89861 20.1375 1.69583C20.9347 2.49583 21.3333 3.48611 21.3333 4.66667V8.83333H15.0833V6.75H6.75V19.25H15.0833V17.1667H21.3333V21.3333C21.3333 22.5139 20.9347 23.5028 20.1375 24.3C19.3375 25.1 18.3472 25.5 17.1667 25.5H4.66667Z" fill="white"/>
</svg>
