<svg width="84" height="76" viewBox="0 0 84 76" fill="none" xmlns="http://www.w3.org/2000/svg">
<path d="M25.3334 75.5V67.1667H33.6667V58.8333H8.66671C6.37504 58.8333 4.41393 58.0181 2.78337 56.3875C1.15004 54.7542 0.333374 52.7917 0.333374 50.5V8.83333C0.333374 6.54167 1.15004 4.57917 2.78337 2.94583C4.41393 1.31528 6.37504 0.5 8.66671 0.5H75.3334C77.625 0.5 79.5875 1.31528 81.2209 2.94583C82.8514 4.57917 83.6667 6.54167 83.6667 8.83333V50.5C83.6667 52.7917 82.8514 54.7542 81.2209 56.3875C79.5875 58.0181 77.625 58.8333 75.3334 58.8333H50.3334V67.1667H58.6667V75.5H25.3334ZM8.66671 50.5H75.3334V8.83333H8.66671V50.5Z" fill="#01C38D"/>
</svg>
