<svg width="90" height="90" viewBox="0 0 90 90" fill="none" xmlns="http://www.w3.org/2000/svg">
<circle cx="45" cy="45" r="43.5" stroke="#01C38D" stroke-width="3"/>
<mask id="mask0_101_18" style="mask-type:alpha" maskUnits="userSpaceOnUse" x="16" y="15" width="60" height="60">
<rect x="16" y="15" width="60" height="60" fill="#D9D9D9"/>
</mask>
<g mask="url(#mask0_101_18)">
<path d="M46.0001 15.1245L69.7501 29.2495C71.0417 30.0412 71.9901 31.0303 72.5951 32.217C73.1984 33.4053 73.5001 34.7287 73.5001 36.187V62.812C73.5001 64.937 72.7501 66.7495 71.2501 68.2495C69.7501 69.7495 67.9376 70.4995 65.8126 70.4995H26.1876C24.0626 70.4995 22.2501 69.7495 20.7501 68.2495C19.2501 66.7495 18.5001 64.937 18.5001 62.812V36.187C18.5001 34.7287 18.8026 33.4053 19.4076 32.217C20.0109 31.0303 20.9584 30.0412 22.2501 29.2495L46.0001 15.1245ZM46.0001 46.7495L65.0626 35.437L46.0001 23.9995L26.9376 35.437L46.0001 46.7495ZM46.0001 54.437L26.1876 42.562V62.812H65.8126V42.562L46.0001 54.437Z" fill="#01C38D"/>
</g>
</svg>
