<svg width="62" height="84" viewBox="0 0 62 84" fill="none" xmlns="http://www.w3.org/2000/svg">
<path d="M31 83.6667C29.1945 83.6667 27.5625 83.2334 26.1042 82.3667C24.6458 81.4973 23.5 80.3334 22.6667 78.875C20.375 78.875 18.4139 78.0598 16.7833 76.4292C15.15 74.7959 14.3333 72.8334 14.3333 70.5417V55.75C10.2361 53.0417 6.95556 49.4653 4.49167 45.0209C2.02501 40.5764 0.791672 35.75 0.791672 30.5417C0.791672 22.1389 3.72501 15.0028 9.59167 9.13337C15.4611 3.26671 22.5972 0.333374 31 0.333374C39.4028 0.333374 46.5375 3.26671 52.4042 9.13337C58.2736 15.0028 61.2083 22.1389 61.2083 30.5417C61.2083 35.8889 59.9764 40.75 57.5125 45.125C55.0458 49.5 51.7639 53.0417 47.6667 55.75V70.5417C47.6667 72.8334 46.8514 74.7959 45.2208 76.4292C43.5875 78.0598 41.625 78.875 39.3333 78.875C38.5 80.3334 37.3542 81.4973 35.8958 82.3667C34.4375 83.2334 32.8056 83.6667 31 83.6667ZM22.6667 70.5417H39.3333V66.7917H22.6667V70.5417ZM22.6667 62.625H39.3333V58.6667H22.6667V62.625ZM21.8333 50.3334H27.875V39.0834L18.7083 29.9167L23.0833 25.5417L31 33.4584L38.9167 25.5417L43.2917 29.9167L34.125 39.0834V50.3334H40.1667C43.9167 48.5278 46.9722 45.8709 49.3333 42.3625C51.6945 38.857 52.875 34.9167 52.875 30.5417C52.875 24.4306 50.757 19.257 46.5208 15.0209C42.2847 10.7848 37.1111 8.66671 31 8.66671C24.8889 8.66671 19.7153 10.7848 15.4792 15.0209C11.2431 19.257 9.12501 24.4306 9.12501 30.5417C9.12501 34.9167 10.3056 38.857 12.6667 42.3625C15.0278 45.8709 18.0833 48.5278 21.8333 50.3334Z" fill="#01C38D"/>
</svg>
