<svg width="100" height="26" viewBox="0 0 100 26" fill="none" xmlns="http://www.w3.org/2000/svg">
<path d="M0 25.5V0.5H6.25V8.83333H14.5833V0.5H20.8333V25.5H14.5833V15.0833H6.25V25.5H0ZM32.2917 25.5V6.75H25V0.5H45.8333V6.75H38.5417V25.5H32.2917ZM50 25.5V4.66667C50 3.48611 50.4 2.49583 51.2 1.69583C51.9972 0.89861 52.9861 0.5 54.1667 0.5H72.9167C74.0972 0.5 75.0861 0.89861 75.8833 1.69583C76.6833 2.49583 77.0833 3.48611 77.0833 4.66667V25.5H70.8333V6.75H66.6667V21.3333H60.4167V6.75H56.25V25.5H50ZM83.3333 25.5V0.5H89.5833V19.25H100V25.5H83.3333Z" fill="white"/>
</svg>
