<svg width="46" height="26" viewBox="0 0 46 26" fill="none" xmlns="http://www.w3.org/2000/svg">
<path d="M6.25 25.5C4.51389 25.5 3.03889 24.8917 1.825 23.675C0.608334 22.4611 0 20.9861 0 19.25V15.0833H6.25V19.25H12.5V0.5H18.75V19.25C18.75 20.9861 18.1417 22.4611 16.925 23.675C15.7111 24.8917 14.2361 25.5 12.5 25.5H6.25ZM29.1667 25.5C27.9861 25.5 26.9972 25.1 26.2 24.3C25.4 23.5028 25 22.5139 25 21.3333V17.1667H31.25V19.25H39.5833V15.0833H29.1667C27.9861 15.0833 26.9972 14.6833 26.2 13.8833C25.4 13.0861 25 12.0972 25 10.9167V4.66667C25 3.48611 25.4 2.49583 26.2 1.69583C26.9972 0.89861 27.9861 0.5 29.1667 0.5H41.6667C42.8472 0.5 43.8361 0.89861 44.6333 1.69583C45.4333 2.49583 45.8333 3.48611 45.8333 4.66667V8.83333H39.5833V6.75H31.25V10.9167H41.6667C42.8472 10.9167 43.8361 11.3153 44.6333 12.1125C45.4333 12.9125 45.8333 13.9028 45.8333 15.0833V21.3333C45.8333 22.5139 45.4333 23.5028 44.6333 24.3C43.8361 25.1 42.8472 25.5 41.6667 25.5H29.1667Z" fill="#F7FBFF"/>
</svg>
