<svg width="60" height="61" viewBox="0 0 60 61" fill="none" xmlns="http://www.w3.org/2000/svg">
<mask id="mask0_175_9" style="mask-type:alpha" maskUnits="userSpaceOnUse" x="0" y="0" width="60" height="61">
<rect y="0.5" width="60" height="60" fill="#D9D9D9"/>
</mask>
<g mask="url(#mask0_175_9)">
<path d="M30 55.5C25.1667 55.5 21.0417 53.7917 17.625 50.375C14.2083 46.9583 12.5 42.8333 12.5 38V23C12.5 18.1667 14.2083 14.0417 17.625 10.625C21.0417 7.20833 25.1667 5.5 30 5.5C34.8333 5.5 38.9583 7.20833 42.375 10.625C45.7917 14.0417 47.5 18.1667 47.5 23V38C47.5 42.8333 45.7917 46.9583 42.375 50.375C38.9583 53.7917 34.8333 55.5 30 55.5ZM32.5 23H42.5C42.5 20 41.5525 17.3542 39.6575 15.0625C37.7608 12.7708 35.375 11.3333 32.5 10.75V23ZM17.5 23H27.5V10.75C24.625 11.3333 22.2392 12.7708 20.3425 15.0625C18.4475 17.3542 17.5 20 17.5 23ZM30 50.5C33.4583 50.5 36.4067 49.2817 38.845 46.845C41.2817 44.4067 42.5 41.4583 42.5 38V28H17.5V38C17.5 41.4583 18.7192 44.4067 21.1575 46.845C23.5942 49.2817 26.5417 50.5 30 50.5Z" fill="white"/>
</g>
</svg>
