<svg width="50" height="51" viewBox="0 0 50 51" fill="none" xmlns="http://www.w3.org/2000/svg">
<mask id="mask0_128_7" style="mask-type:alpha" maskUnits="userSpaceOnUse" x="0" y="0" width="50" height="51">
<rect y="0.5" width="50" height="50" fill="#D9D9D9"/>
</mask>
<g mask="url(#mask0_128_7)">
<path d="M25 46.3334C20.9722 46.3334 17.5347 44.9098 14.6875 42.0626C11.8403 39.2154 10.4167 35.7779 10.4167 31.7501V19.2501C10.4167 15.2223 11.8403 11.7848 14.6875 8.93758C17.5347 6.09036 20.9722 4.66675 25 4.66675C29.0278 4.66675 32.4653 6.09036 35.3125 8.93758C38.1597 11.7848 39.5833 15.2223 39.5833 19.2501V31.7501C39.5833 35.7779 38.1597 39.2154 35.3125 42.0626C32.4653 44.9098 29.0278 46.3334 25 46.3334ZM27.0833 19.2501H35.4167C35.4167 16.7501 34.6271 14.5452 33.0479 12.6355C31.4673 10.7258 29.4792 9.52786 27.0833 9.04175V19.2501ZM14.5833 19.2501H22.9167V9.04175C20.5208 9.52786 18.5326 10.7258 16.9521 12.6355C15.3729 14.5452 14.5833 16.7501 14.5833 19.2501ZM25 42.1667C27.8819 42.1667 30.3389 41.1515 32.3708 39.1209C34.4014 37.089 35.4167 34.632 35.4167 31.7501V23.4167H14.5833V31.7501C14.5833 34.632 15.5993 37.089 17.6312 39.1209C19.6618 41.1515 22.118 42.1667 25 42.1667Z" fill="#01C38D"/>
</g>
</svg>
