<svg width="78" height="26" viewBox="0 0 78 26" fill="none" xmlns="http://www.w3.org/2000/svg">
<path d="M0.5 25.5V0.5H15.0833C16.75 0.5 18.2083 1.125 19.4583 2.375C20.7083 3.625 21.3333 5.08333 21.3333 6.75V10.9167C21.3333 12.5833 20.7083 14.0417 19.4583 15.2917C18.2083 16.5417 16.75 17.1667 15.0833 17.1667H6.75V25.5H0.5ZM27.5833 25.5V0.5H33.8333V8.83333H42.1667V0.5H48.4167V25.5H42.1667V15.0833H33.8333V25.5H27.5833ZM56.75 25.5V0.5H71.3333C73 0.5 74.4583 1.125 75.7083 2.375C76.9583 3.625 77.5833 5.08333 77.5833 6.75V10.9167C77.5833 12.5833 76.9583 14.0417 75.7083 15.2917C74.4583 16.5417 73 17.1667 71.3333 17.1667H63V25.5H56.75ZM6.75 10.9167H15.0833V6.75H6.75V10.9167ZM63 10.9167H71.3333V6.75H63V10.9167Z" fill="#F7FBFF"/>
</svg>
