<svg width="100" height="100" viewBox="0 0 100 100" fill="none" xmlns="http://www.w3.org/2000/svg">
<mask id="mask0_122_5" style="mask-type:alpha" maskUnits="userSpaceOnUse" x="10" y="10" width="80" height="80">
<rect x="10" y="10" width="80" height="80" fill="white"/>
</mask>
<g mask="url(#mask0_122_5)">
<path d="M50 83.3334C48.5556 83.3334 47.25 82.9868 46.0833 82.2934C44.9167 81.5979 44 80.6668 43.3333 79.5001C41.5 79.5001 39.9311 78.8479 38.6267 77.5434C37.32 76.2368 36.6667 74.6668 36.6667 72.8334V61.0001C33.3889 58.8334 30.7644 55.9723 28.7933 52.4168C26.82 48.8612 25.8333 45.0001 25.8333 40.8334C25.8333 34.1112 28.18 28.4023 32.8733 23.7067C37.5689 19.0134 43.2778 16.6667 50 16.6667C56.7222 16.6667 62.43 19.0134 67.1233 23.7067C71.8189 28.4023 74.1667 34.1112 74.1667 40.8334C74.1667 45.1112 73.1811 49.0001 71.21 52.5001C69.2367 56.0001 66.6111 58.8334 63.3333 61.0001V72.8334C63.3333 74.6668 62.6811 76.2368 61.3767 77.5434C60.07 78.8479 58.5 79.5001 56.6667 79.5001C56 80.6668 55.0833 81.5979 53.9167 82.2934C52.75 82.9868 51.4444 83.3334 50 83.3334ZM43.3333 72.8334H56.6667V69.8334H43.3333V72.8334ZM43.3333 66.5001H56.6667V63.3334H43.3333V66.5001ZM42.6667 56.6667H47.5V47.6668L40.1667 40.3334L43.6667 36.8334L50 43.1667L56.3333 36.8334L59.8333 40.3334L52.5 47.6668V56.6667H57.3333C60.3333 55.2223 62.7778 53.0967 64.6667 50.2901C66.5556 47.4856 67.5 44.3334 67.5 40.8334C67.5 35.9445 65.8056 31.8056 62.4167 28.4167C59.0278 25.0279 54.8889 23.3334 50 23.3334C45.1111 23.3334 40.9722 25.0279 37.5833 28.4167C34.1944 31.8056 32.5 35.9445 32.5 40.8334C32.5 44.3334 33.4444 47.4856 35.3333 50.2901C37.2222 53.0967 39.6667 55.2223 42.6667 56.6667Z" fill="#01C38D"/>
</g>
<circle cx="50" cy="50" r="48.5" stroke="#01C38D" stroke-opacity="0.95" stroke-width="3"/>
</svg>
