<svg width="100" height="100" viewBox="0 0 100 100" fill="none" xmlns="http://www.w3.org/2000/svg">
<path d="M65.8875 17.0626C65.7293 15.8978 64.7309 15 63.5227 15L63.1988 15.0218L62.8883 15.0852C61.8784 15.3631 61.1364 16.2881 61.1364 17.3864V24.5423H55.565L55.5682 17.3864L55.5465 17.0626C55.3884 15.8978 54.39 15 53.1818 15L52.8579 15.0218C51.6934 15.1798 50.7955 16.1782 50.7955 17.3864L50.7923 24.5423H45.2273V17.3864L45.2056 17.0626C45.0475 15.8978 44.049 15 42.8409 15C41.523 15 40.4545 16.0684 40.4545 17.3864L40.456 24.7838C35.7811 25.7322 32.0985 29.4137 31.1484 34.0879L23.75 34.0909L23.4262 34.1127C22.2614 34.2707 21.3636 35.2692 21.3636 36.4773L21.3854 36.8011C21.5434 37.9659 22.5419 38.8637 23.75 38.8637L30.9091 38.8605V44.4287L23.75 44.4318L23.4262 44.4535C22.2614 44.6116 21.3636 45.6101 21.3636 46.8182L21.3854 47.1421C21.452 47.6324 21.6675 48.0757 21.9849 48.4241C24.2154 47.3935 26.6996 46.8182 29.3182 46.8182C31.5632 46.8182 33.7095 47.2411 35.6818 48.0111V36.4773C35.6818 32.5234 38.8871 29.3182 42.8409 29.3182H63.5227C67.4765 29.3182 70.6818 32.5234 70.6818 36.4773V57.1591C70.6818 61.1129 67.4765 64.3182 63.5227 64.3182H46.8182C46.8182 65.9715 46.5888 67.5716 46.1605 69.0878H50.7923L50.7955 76.2501L50.8171 76.574C50.9752 77.7385 51.9737 78.6364 53.1818 78.6364L53.5057 78.6148C54.6703 78.4567 55.5682 77.4582 55.5682 76.2501L55.565 69.0878H61.1364V76.2501L61.158 76.574C61.3161 77.7385 62.3146 78.6364 63.5227 78.6364C64.8406 78.6364 65.9091 77.568 65.9091 76.2501L65.9107 68.852C70.5845 67.9026 74.2655 64.2215 75.2153 59.548L82.6136 59.5455L82.9375 59.5239C84.1021 59.3657 85 58.3673 85 57.1591L84.9784 56.8352C84.8202 55.6707 83.8218 54.7728 82.6136 54.7728H75.4545V49.2046H82.6136L82.9375 49.1829C84.1021 49.0248 85 48.0264 85 46.8182L84.9784 46.4943C84.8202 45.3298 83.8218 44.4318 82.6136 44.4318H75.4545V38.8637H82.6136L82.9375 38.8419C84.1021 38.6839 85 37.6854 85 36.4773C85 35.1594 83.9315 34.0909 82.6136 34.0909L75.2159 34.0915C74.2674 29.4166 70.5854 25.7341 65.9107 24.7845L65.9091 17.3864L65.8875 17.0626ZM62.7429 46.8338C62.7429 41.5621 58.4694 37.2884 53.1974 37.2884C47.9258 37.2884 43.652 41.5621 43.652 46.8338C43.652 52.1058 47.9258 56.3793 53.1974 56.3793C58.4694 56.3793 62.7429 52.1058 62.7429 46.8338ZM48.4247 46.8338C48.4247 44.198 50.5616 42.0612 53.1974 42.0612C55.8335 42.0612 57.9701 44.198 57.9701 46.8338C57.9701 49.4699 55.8335 51.6065 53.1974 51.6065C50.5616 51.6065 48.4247 49.4699 48.4247 46.8338ZM29.3182 78.6364C32.4105 78.6364 35.2739 77.6561 37.6145 75.9895L45.9263 84.301C46.8583 85.233 48.369 85.233 49.301 84.301C50.2329 83.3691 50.2329 81.8583 49.301 80.9264L40.9893 72.6145C42.6561 70.274 43.6364 67.4107 43.6364 64.3182C43.6364 56.4105 37.2259 50 29.3182 50C21.4105 50 15 56.4105 15 64.3182C15 72.226 21.4105 78.6364 29.3182 78.6364ZM29.3182 73.8637C24.0464 73.8637 19.7727 69.5902 19.7727 64.3182C19.7727 59.0463 24.0464 54.7728 29.3182 54.7728C34.59 54.7728 38.8636 59.0463 38.8636 64.3182C38.8636 69.5902 34.59 73.8637 29.3182 73.8637Z" fill="#01C38D"/>
<circle cx="50" cy="50" r="48.5" stroke="#01C38D" stroke-width="3"/>
</svg>
