<svg width="90" height="90" viewBox="0 0 90 90" fill="none" xmlns="http://www.w3.org/2000/svg">
<circle cx="45" cy="45" r="43.5" stroke="#01C38D" stroke-width="3"/>
<mask id="mask0_101_17" style="mask-type:alpha" maskUnits="userSpaceOnUse" x="9" y="12" width="70" height="70">
<rect x="9" y="12" width="70" height="70" fill="#D9D9D9"/>
</mask>
<g mask="url(#mask0_101_17)">
<path d="M58.5833 61.5835C59.7986 61.5835 60.8311 61.1577 61.6808 60.306C62.5325 59.4563 62.9583 58.4238 62.9583 57.2085C62.9583 55.9932 62.5325 54.9607 61.6808 54.111C60.8311 53.2593 59.7986 52.8335 58.5833 52.8335C57.368 52.8335 56.3355 53.2593 55.4858 54.111C54.6341 54.9607 54.2083 55.9932 54.2083 57.2085C54.2083 58.4238 54.6341 59.4563 55.4858 60.306C56.3355 61.1577 57.368 61.5835 58.5833 61.5835ZM58.5833 70.3335C60.0902 70.3335 61.4757 69.9806 62.7395 69.2747C64.0034 68.5709 65.0243 67.6356 65.802 66.4689C64.7326 65.837 63.5902 65.3509 62.375 65.0106C61.1597 64.6703 59.8958 64.5002 58.5833 64.5002C57.2708 64.5002 56.0069 64.6703 54.7916 65.0106C53.5763 65.3509 52.434 65.837 51.3645 66.4689C52.1423 67.6356 53.1632 68.5709 54.427 69.2747C55.6909 69.9806 57.0763 70.3335 58.5833 70.3335ZM44 76.1668C37.243 74.4654 31.6654 70.5882 27.267 64.5352C22.8668 58.484 20.6666 51.764 20.6666 44.3752V26.5835L44 17.8335L67.3333 26.5835V43.1356C66.4097 42.7467 65.4618 42.3938 64.4895 42.0768C63.5173 41.7618 62.5208 41.5314 61.5 41.3856V30.6668L44 24.1043L26.5 30.6668V44.3752C26.5 46.6599 26.8033 48.9446 27.41 51.2293C28.0186 53.514 28.8702 55.6899 29.965 57.7568C31.0577 59.8218 32.3819 61.7293 33.9375 63.4793C35.493 65.2293 37.2187 66.6877 39.1145 67.8543C39.6493 69.4099 40.3541 70.8925 41.2291 72.3022C42.1041 73.712 43.1007 74.9759 44.2187 76.0939C44.1701 76.0939 44.1341 76.1066 44.1108 76.1318C44.0855 76.1552 44.0486 76.1668 44 76.1668ZM58.5833 76.1668C54.5486 76.1668 51.1098 74.7454 48.267 71.9027C45.4223 69.0579 44 65.6182 44 61.5835C44 57.5488 45.4223 54.1091 48.267 51.2643C51.1098 48.4215 54.5486 47.0002 58.5833 47.0002C62.618 47.0002 66.0577 48.4215 68.9025 51.2643C71.7452 54.1091 73.1666 57.5488 73.1666 61.5835C73.1666 65.6182 71.7452 69.0579 68.9025 71.9027C66.0577 74.7454 62.618 76.1668 58.5833 76.1668Z" fill="#01C38D"/>
</g>
</svg>
