<svg width="90" height="90" viewBox="0 0 90 90" fill="none" xmlns="http://www.w3.org/2000/svg">
<mask id="mask0_101_19" style="mask-type:alpha" maskUnits="userSpaceOnUse" x="15" y="18" width="60" height="60">
<rect x="15" y="18" width="60" height="60" fill="#D9D9D9"/>
</mask>
<g mask="url(#mask0_101_19)">
<path d="M66.1875 72.8755C60.2292 72.8755 54.4792 71.5947 48.9375 69.033C43.3958 66.4697 38.4792 63.0422 34.1875 58.7505C29.8958 54.4588 26.4683 49.5313 23.905 43.968C21.3433 38.4063 20.0625 32.6463 20.0625 26.688C20.0625 25.563 20.4067 24.6463 21.095 23.938C21.7817 23.2297 22.6875 22.8755 23.8125 22.8755H35.4375C36.5625 22.8755 37.51 23.1772 38.28 23.7805C39.0517 24.3855 39.5417 25.2088 39.75 26.2505L41.5 35.438C41.6667 36.3963 41.6567 37.2297 41.47 37.938C41.2817 38.6463 40.8958 39.2713 40.3125 39.813L33.6875 46.063C35.1042 48.3963 36.9375 50.6988 39.1875 52.9705C41.4375 55.2405 43.75 57.1463 46.125 58.688L52.9375 52.188C53.5625 51.6047 54.2292 51.2088 54.9375 51.0005C55.6458 50.7922 56.4167 50.7922 57.25 51.0005L66.5625 53.063C67.6458 53.313 68.4792 53.7922 69.0625 54.5005C69.6458 55.2088 69.9375 56.0838 69.9375 57.1255V69.1255C69.9375 70.2505 69.5933 71.1572 68.905 71.8455C68.2183 72.5322 67.3125 72.8755 66.1875 72.8755ZM30 39.0005L33.75 35.563L32.8125 30.563H27.9375C28.1042 32.1047 28.3442 33.5522 28.6575 34.9055C28.9692 36.2605 29.4167 37.6255 30 39.0005ZM53.3125 62.563C54.7708 63.188 56.25 63.688 57.75 64.063C59.25 64.438 60.75 64.7297 62.25 64.938V64.9705V59.938L57.125 58.7505L53.3125 62.563Z" fill="#01C38D"/>
</g>
<circle cx="45" cy="45" r="43.5" stroke="#01C38D" stroke-width="3"/>
</svg>
