<svg width="100" height="100" viewBox="0 0 100 100" fill="none" xmlns="http://www.w3.org/2000/svg">
<path d="M38 80V74H44V68H26C24.35 68 22.938 67.413 21.764 66.239C20.588 65.063 20 63.65 20 62V32C20 30.35 20.588 28.937 21.764 27.761C22.938 26.587 24.35 26 26 26H74C75.65 26 77.063 26.587 78.239 27.761C79.413 28.937 80 30.35 80 32V62C80 63.65 79.413 65.063 78.239 66.239C77.063 67.413 75.65 68 74 68H56V74H62V80H38ZM26 62H74V32H26V62Z" fill="#01C38D"/>
<circle cx="50" cy="50" r="48.5" stroke="#01C38D" stroke-opacity="0.95" stroke-width="3"/>
</svg>
